<svg width="108" height="75" viewBox="0 0 108 75" fill="none" xmlns="http://www.w3.org/2000/svg">
<path d="M9.56836 44.1304H10.0537C12.2725 44.1304 14.1676 43.8068 15.7393 43.1597C17.334 42.5125 18.6283 41.5649 19.6221 40.3169C20.639 39.0457 21.3786 37.4857 21.8408 35.6367C22.3031 33.7878 22.5342 31.6846 22.5342 29.3271V19.5854C22.5342 17.7827 22.4071 16.2227 22.1528 14.9053C21.8986 13.5648 21.5404 12.4554 21.0781 11.5771C20.6159 10.6758 20.0959 10.0055 19.5181 9.56641C18.9403 9.12728 18.3162 8.90771 17.646 8.90771C16.8602 8.90771 16.1668 9.1735 15.5659 9.70508C14.965 10.2367 14.4565 10.9647 14.0405 11.8892C13.6476 12.7905 13.3472 13.819 13.1392 14.9746C12.9312 16.1302 12.8271 17.3205 12.8271 18.5454C12.8271 19.8397 12.9312 21.0531 13.1392 22.1855C13.3472 23.318 13.6592 24.3234 14.0752 25.2017C14.4912 26.0799 15.0228 26.7617 15.6699 27.2471C16.3171 27.7324 17.0913 27.9751 17.9927 27.9751C18.7323 27.9751 19.4141 27.7671 20.0381 27.3511C20.6621 26.9119 21.2052 26.3341 21.6675 25.6177C22.1297 24.9012 22.4995 24.1154 22.7769 23.2603C23.0542 22.4051 23.2044 21.5269 23.2275 20.6255L26.3823 22.6016C26.3823 24.1732 26.0934 25.7332 25.5156 27.2817C24.9609 28.8302 24.1867 30.2401 23.1929 31.5112C22.1991 32.7824 21.0435 33.7993 19.7261 34.562C18.4318 35.3016 17.0335 35.6714 15.5312 35.6714C13.5205 35.6714 11.7409 35.2438 10.1924 34.3887C8.64388 33.5335 7.33805 32.3433 6.2749 30.8179C5.23486 29.2694 4.44906 27.4666 3.91748 25.4097C3.3859 23.3296 3.12012 21.0877 3.12012 18.6841C3.12012 16.2342 3.45524 13.9346 4.12549 11.7852C4.81885 9.61263 5.80111 7.70589 7.07227 6.06494C8.34342 4.42399 9.88037 3.14128 11.6831 2.2168C13.4858 1.26921 15.4966 0.79541 17.7153 0.79541C19.911 0.79541 21.8986 1.28076 23.6782 2.25146C25.4578 3.22217 26.9832 4.62044 28.2544 6.44629C29.5256 8.24902 30.4963 10.4215 31.1665 12.9639C31.8599 15.4831 32.2065 18.3027 32.2065 21.4229V24.9243C32.2065 28.2293 31.9176 31.3032 31.3398 34.146C30.762 36.9657 29.8838 39.508 28.7051 41.7729C27.5264 44.0379 26.0588 45.9793 24.3022 47.5972C22.5457 49.1919 20.4888 50.4168 18.1313 51.272C15.797 52.104 13.1507 52.52 10.1924 52.52H9.56836V44.1304ZM68.5039 22.3242V31.0952C68.5039 34.8856 68.1457 38.1444 67.4292 40.8716C66.7127 43.5988 65.7074 45.8407 64.4131 47.5972C63.1188 49.3306 61.5819 50.6133 59.8022 51.4453C58.0226 52.2773 56.0581 52.6934 53.9087 52.6934C52.1984 52.6934 50.5921 52.4276 49.0898 51.896C47.5876 51.3644 46.224 50.5555 44.999 49.4692C43.7972 48.3599 42.7572 46.9616 41.8789 45.2744C41.0238 43.5641 40.3651 41.5418 39.9028 39.2075C39.4406 36.8501 39.2095 34.146 39.2095 31.0952V22.3242C39.2095 18.5339 39.5677 15.2866 40.2842 12.5825C41.0238 9.85531 42.0407 7.625 43.335 5.8916C44.6292 4.1582 46.1662 2.88704 47.9458 2.07812C49.7485 1.24609 51.7246 0.830078 53.874 0.830078C55.5612 0.830078 57.1559 1.09587 58.6582 1.62744C60.1836 2.1359 61.5356 2.93327 62.7144 4.01953C63.9162 5.10579 64.9447 6.50407 65.7998 8.21436C66.6781 9.90153 67.3483 11.9238 67.8105 14.2812C68.2728 16.6156 68.5039 19.2965 68.5039 22.3242ZM58.7622 32.4473V20.9028C58.7622 19.1232 58.6813 17.5632 58.5195 16.2227C58.3809 14.8822 58.1844 13.7497 57.9302 12.8252C57.6759 11.9007 57.3408 11.1496 56.9248 10.5718C56.5088 9.99398 56.0465 9.57796 55.5381 9.32373C55.0296 9.04639 54.4634 8.90771 53.8394 8.90771C53.0998 8.90771 52.4295 9.11572 51.8286 9.53174C51.2277 9.94775 50.7077 10.6296 50.2686 11.5771C49.8294 12.5016 49.4943 13.7381 49.2632 15.2866C49.0552 16.812 48.9512 18.6841 48.9512 20.9028V32.4473C48.9512 34.2269 49.0205 35.7985 49.1592 37.1621C49.321 38.5257 49.5405 39.6929 49.8179 40.6636C50.1183 41.6112 50.4535 42.3739 50.8232 42.9517C51.2161 43.5295 51.6668 43.957 52.1753 44.2344C52.7069 44.4886 53.2847 44.6157 53.9087 44.6157C54.6483 44.6157 55.3185 44.4077 55.9194 43.9917C56.5435 43.5526 57.0635 42.8592 57.4795 41.9116C57.8955 40.964 58.2075 39.716 58.4155 38.1675C58.6466 36.5959 58.7622 34.6891 58.7622 32.4473ZM104.42 22.3242V31.0952C104.42 34.8856 104.062 38.1444 103.345 40.8716C102.629 43.5988 101.623 45.8407 100.329 47.5972C99.0348 49.3306 97.4979 50.6133 95.7183 51.4453C93.9386 52.2773 91.9741 52.6934 89.8247 52.6934C88.1144 52.6934 86.5081 52.4276 85.0059 51.896C83.5036 51.3644 82.14 50.5555 80.915 49.4692C79.7132 48.3599 78.6732 46.9616 77.7949 45.2744C76.9398 43.5641 76.2811 41.5418 75.8188 39.2075C75.3566 36.8501 75.1255 34.146 75.1255 31.0952V22.3242C75.1255 18.5339 75.4837 15.2866 76.2002 12.5825C76.9398 9.85531 77.9567 7.625 79.251 5.8916C80.5452 4.1582 82.0822 2.88704 83.8618 2.07812C85.6646 1.24609 87.6406 0.830078 89.79 0.830078C91.4772 0.830078 93.0719 1.09587 94.5742 1.62744C96.0996 2.1359 97.4517 2.93327 98.6304 4.01953C99.8322 5.10579 100.861 6.50407 101.716 8.21436C102.594 9.90153 103.264 11.9238 103.727 14.2812C104.189 16.6156 104.42 19.2965 104.42 22.3242ZM94.6782 32.4473V20.9028C94.6782 19.1232 94.5973 17.5632 94.4355 16.2227C94.2969 14.8822 94.1004 13.7497 93.8462 12.8252C93.592 11.9007 93.2568 11.1496 92.8408 10.5718C92.4248 9.99398 91.9626 9.57796 91.4541 9.32373C90.9456 9.04639 90.3794 8.90771 89.7554 8.90771C89.0158 8.90771 88.3455 9.11572 87.7446 9.53174C87.1437 9.94775 86.6237 10.6296 86.1846 11.5771C85.7454 12.5016 85.4103 13.7381 85.1792 15.2866C84.9712 16.812 84.8672 18.6841 84.8672 20.9028V32.4473C84.8672 34.2269 84.9365 35.7985 85.0752 37.1621C85.237 38.5257 85.4565 39.6929 85.7339 40.6636C86.0343 41.6112 86.3695 42.3739 86.7393 42.9517C87.1322 43.5295 87.5828 43.957 88.0913 44.2344C88.6229 44.4886 89.2007 44.6157 89.8247 44.6157C90.5643 44.6157 91.2345 44.4077 91.8354 43.9917C92.4595 43.5526 92.9795 42.8592 93.3955 41.9116C93.8115 40.964 94.1235 39.716 94.3315 38.1675C94.5627 36.5959 94.6782 34.6891 94.6782 32.4473Z" fill="url(#paint0_linear_1_115)"/>
<path d="M2.91211 70.8486H2.22852V74H1.01855V66.6035H2.22852V69.7344H2.83008L4.84668 66.6035H6.28906L3.82129 70.124L6.4668 74H4.94922L2.91211 70.8486ZM7.73828 74V66.6035H10.2197C11.0674 66.6035 11.7145 66.7767 12.1611 67.123C12.6077 67.4694 12.8311 67.973 12.8311 68.6338C12.8311 68.9756 12.7422 69.2832 12.5645 69.5566C12.3867 69.8301 12.127 70.0397 11.7852 70.1855C12.1634 70.2858 12.4665 70.4886 12.6943 70.7939C12.9268 71.0993 13.043 71.4684 13.043 71.9014C13.043 72.585 12.8288 73.1068 12.4004 73.4668C11.9766 73.8223 11.375 74 10.5957 74H7.73828ZM8.94141 70.7529V72.9814H10.6094C11.4251 72.9814 11.833 72.6077 11.833 71.8604C11.833 71.1221 11.4206 70.7529 10.5957 70.7529H8.94141ZM8.94141 69.7412H10.2061C11.1494 69.7412 11.6211 69.3949 11.6211 68.7021C11.6211 68.0049 11.1768 67.6471 10.2881 67.6289H8.94141V69.7412ZM15.0186 74.8545H13.9932L17.4863 64.0469H18.5049L15.0186 74.8545ZM23.5088 72.3252L25.4912 66.6035H26.9951V74H25.792V68.9004L23.9258 74H23.0986L21.1914 68.7773V74H19.9883V66.6035H21.5469L23.5088 72.3252Z" fill="#2E35AC"/>
<defs>
<linearGradient id="paint0_linear_1_115" x1="0" y1="3" x2="22.4438" y2="41.104" gradientUnits="userSpaceOnUse">
<stop stop-color="#D10A42"/>
<stop offset="1" stop-color="#0041CA"/>
</linearGradient>
</defs>
</svg>
