<svg width="72" height="75" viewBox="0 0 72 75" fill="none" xmlns="http://www.w3.org/2000/svg">
<path d="M32.8652 1.52344V7.07031L16.918 52H6.65625L22.6729 9.60107H2.35742V1.52344H32.8652ZM68.5039 22.3242V31.0952C68.5039 34.8856 68.1457 38.1444 67.4292 40.8716C66.7127 43.5988 65.7074 45.8407 64.4131 47.5972C63.1188 49.3306 61.5819 50.6133 59.8022 51.4453C58.0226 52.2773 56.0581 52.6934 53.9087 52.6934C52.1984 52.6934 50.5921 52.4276 49.0898 51.896C47.5876 51.3644 46.224 50.5555 44.999 49.4692C43.7972 48.3599 42.7572 46.9616 41.8789 45.2744C41.0238 43.5641 40.3651 41.5418 39.9028 39.2075C39.4406 36.8501 39.2095 34.146 39.2095 31.0952V22.3242C39.2095 18.5339 39.5677 15.2866 40.2842 12.5825C41.0238 9.85531 42.0407 7.625 43.335 5.8916C44.6292 4.1582 46.1662 2.88704 47.9458 2.07812C49.7485 1.24609 51.7246 0.830078 53.874 0.830078C55.5612 0.830078 57.1559 1.09587 58.6582 1.62744C60.1836 2.1359 61.5356 2.93327 62.7144 4.01953C63.9162 5.10579 64.9447 6.50407 65.7998 8.21436C66.6781 9.90153 67.3483 11.9238 67.8105 14.2812C68.2728 16.6156 68.5039 19.2965 68.5039 22.3242ZM58.7622 32.4473V20.9028C58.7622 19.1232 58.6813 17.5632 58.5195 16.2227C58.3809 14.8822 58.1844 13.7497 57.9302 12.8252C57.6759 11.9007 57.3408 11.1496 56.9248 10.5718C56.5088 9.99398 56.0465 9.57796 55.5381 9.32373C55.0296 9.04639 54.4634 8.90771 53.8394 8.90771C53.0998 8.90771 52.4295 9.11572 51.8286 9.53174C51.2277 9.94775 50.7077 10.6296 50.2686 11.5771C49.8294 12.5016 49.4943 13.7381 49.2632 15.2866C49.0552 16.812 48.9512 18.6841 48.9512 20.9028V32.4473C48.9512 34.2269 49.0205 35.7985 49.1592 37.1621C49.321 38.5257 49.5405 39.6929 49.8179 40.6636C50.1183 41.6112 50.4535 42.3739 50.8232 42.9517C51.2161 43.5295 51.6668 43.957 52.1753 44.2344C52.7069 44.4886 53.2847 44.6157 53.9087 44.6157C54.6483 44.6157 55.3185 44.4077 55.9194 43.9917C56.5435 43.5526 57.0635 42.8592 57.4795 41.9116C57.8955 40.964 58.2075 39.716 58.4155 38.1675C58.6466 36.5959 58.7622 34.6891 58.7622 32.4473Z" fill="url(#paint0_linear_1_131)"/>
<path d="M4.53223 72.3252L6.51465 66.6035H8.01855V74H6.81543V68.9004L4.94922 74H4.12207L2.21484 68.7773V74H1.01172V66.6035H2.57031L4.53223 72.3252ZM13.7607 74C13.6878 73.8405 13.6354 73.5716 13.6035 73.1934C13.1751 73.8223 12.6283 74.1367 11.9629 74.1367C11.293 74.1367 10.7689 73.9499 10.3906 73.5762C10.0169 73.1979 9.83008 72.667 9.83008 71.9834C9.83008 71.2314 10.0853 70.6344 10.5957 70.1924C11.1061 69.7503 11.8057 69.5247 12.6943 69.5156H13.583V68.7295C13.583 68.2874 13.485 67.973 13.2891 67.7861C13.0931 67.5993 12.7946 67.5059 12.3936 67.5059C12.029 67.5059 11.7327 67.6152 11.5049 67.834C11.277 68.0482 11.1631 68.3216 11.1631 68.6543H9.95312C9.95312 68.276 10.0648 67.916 10.2881 67.5742C10.5114 67.2279 10.8122 66.9567 11.1904 66.7607C11.5687 66.5648 11.9902 66.4668 12.4551 66.4668C13.2116 66.4668 13.7858 66.6559 14.1777 67.0342C14.5742 67.4079 14.777 67.9548 14.7861 68.6748V72.4072C14.7907 72.9769 14.8682 73.4714 15.0186 73.8906V74H13.7607ZM12.1475 73.0361C12.4437 73.0361 12.7262 72.9541 12.9951 72.79C13.264 72.626 13.46 72.4209 13.583 72.1748V70.4111H12.8994C12.3252 70.4202 11.8717 70.5501 11.5391 70.8008C11.2064 71.0469 11.04 71.3932 11.04 71.8398C11.04 72.2591 11.1243 72.5645 11.293 72.7559C11.4616 72.9427 11.7464 73.0361 12.1475 73.0361ZM17.9922 66.6035V72.9678H20.0771V66.6035H21.2803V72.9678H23.3721V66.6035H24.582V74H16.7754V66.6035H17.9922ZM30.5225 66.6035H31.7256V74H30.5225V68.6064L27.8428 74H26.6328V66.6035H27.8428V72.0039L30.5225 66.6035ZM38.8555 74H37.6523V70.8418H34.9863V74H33.7695V66.6035H34.9863V69.8096H37.6523V66.6035H38.8555V74Z" fill="#2E35AC"/>
<defs>
<linearGradient id="paint0_linear_1_131" x1="0" y1="3" x2="31.023" y2="62.4222" gradientUnits="userSpaceOnUse">
<stop stop-color="#D10A42"/>
<stop offset="1" stop-color="#0041CA"/>
</linearGradient>
</defs>
</svg>
